<?xml version="1.0" encoding="UTF-8" standalone="no"?><!-- Generator: Gravit.io --><svg xmlns="http://www.w3.org/2000/svg" xmlns:xlink="http://www.w3.org/1999/xlink" style="isolation:isolate" viewBox="0 0 1178.3 966.8" width="1178.3pt" height="966.8pt"><defs><clipPath id="_clipPath_UkUx275lGT5uHMuOEnXPFrnYlEwIiI4q"><rect width="1178.3" height="966.8"/></clipPath></defs><g clip-path="url(#_clipPath_UkUx275lGT5uHMuOEnXPFrnYlEwIiI4q)"><clipPath id="_clipPath_IJ3AP5UdcH5TThHKLMWcEUStySXrjr3B"><rect x="0" y="0" width="1178.3" height="966.8" transform="matrix(1,0,0,1,0,0)" fill="rgb(255,255,255)"/></clipPath><g clip-path="url(#_clipPath_IJ3AP5UdcH5TThHKLMWcEUStySXrjr3B)"><g><clipPath id="_clipPath_IT62uwbaWYx2vCqBTOYaYoUuColoFHCy"><rect x="0" y="0" width="1178.3" height="966.8" transform="matrix(1,0,0,1,0,0)" fill="rgb(255,255,255)"/></clipPath><g clip-path="url(#_clipPath_IT62uwbaWYx2vCqBTOYaYoUuColoFHCy)"><g><g><path d=" M 933.803 244.662 L 757.058 82.528 L 732.196 109.629 L 879.483 244.662 Q 774 220 589.209 220 Q 403 220 298.935 244.662 L 446.222 109.511 L 421.36 82.41 L 244.615 244.662 L 244.497 244.662 L 244.497 351.534 C 244.497 399.844 291.04 439.199 348.188 439.199 L 378 439.199 C 435.148 439.199 560.871 364.31 560.871 316 L 560.871 281.425 L 617.429 281.425 L 617.429 316 C 617.429 364.31 742.852 439.199 800 439.199 L 830.112 439.317 C 887.26 439.317 933.803 399.962 933.803 351.652 L 933.803 244.662 Z " fill="rgb(135,90,123)"/><path d=" M 358.851 344.337 C 358.851 319.896 378.694 300.053 403.135 300.053 C 427.576 300.053 447.419 319.896 447.419 344.337 C 447.419 368.778 427.576 388.621 403.135 388.621 C 378.694 388.621 358.851 368.778 358.851 344.337 Z  M 730.881 343.531 C 730.881 319.09 750.724 299.247 775.165 299.247 C 799.606 299.247 819.449 319.09 819.449 343.531 C 819.449 367.972 799.606 387.815 775.165 387.815 C 750.724 387.815 730.881 367.972 730.881 343.531 Z " fill-rule="evenodd" fill="rgb(255,255,255)"/></g></g></g><path d=" M 409.381 540.207 L 409.381 513.74 L 430.695 513.74 L 430.695 621.002 L 368.845 621.002 L 368.845 621.002 Q 360.487 621.002 354.566 615.012 L 354.566 615.012 L 354.566 615.012 Q 348.646 609.022 348.646 600.803 L 348.646 600.803 L 348.646 560.406 L 348.646 560.406 Q 348.646 552.187 354.566 546.197 L 354.566 546.197 L 354.566 546.197 Q 360.487 540.207 368.845 540.207 L 368.845 540.207 L 409.381 540.207 Z  M 409.381 561.52 L 370.098 561.52 L 370.098 599.689 L 409.381 599.689 L 409.381 561.52 Z  M 462.455 540.207 L 462.455 540.207 L 503.967 540.207 L 503.967 540.207 Q 512.325 540.207 518.246 546.197 L 518.246 546.197 L 518.246 546.197 Q 524.166 552.187 524.166 560.406 L 524.166 560.406 L 524.166 600.803 L 524.166 600.803 Q 524.166 609.022 518.246 615.012 L 518.246 615.012 L 518.246 615.012 Q 512.325 621.002 503.967 621.002 L 503.967 621.002 L 462.455 621.002 L 462.455 621.002 Q 454.237 621.002 448.247 615.012 L 448.247 615.012 L 448.247 615.012 Q 442.257 609.022 442.257 600.803 L 442.257 600.803 L 442.257 560.406 L 442.257 560.406 Q 442.257 552.187 448.247 546.197 L 448.247 546.197 L 448.247 546.197 Q 454.237 540.207 462.455 540.207 Z  M 502.853 561.52 L 463.57 561.52 L 463.57 599.689 L 502.853 599.689 L 502.853 561.52 Z  M 539.628 621.002 L 539.628 520.705 L 619.169 520.705 L 619.169 520.705 Q 627.806 520.705 633.866 526.765 L 633.866 526.765 L 633.866 526.765 Q 639.925 532.824 639.925 541.322 L 639.925 541.322 L 639.925 600.386 L 639.925 600.386 Q 639.925 608.883 633.866 614.943 L 633.866 614.943 L 633.866 614.943 Q 627.806 621.002 619.169 621.002 L 619.169 621.002 L 539.628 621.002 Z  M 618.055 542.436 L 561.22 542.436 L 561.22 599.271 L 618.055 599.271 L 618.055 542.436 Z  M 675.029 540.207 L 675.029 540.207 L 716.541 540.207 L 716.541 540.207 Q 724.899 540.207 730.82 546.197 L 730.82 546.197 L 730.82 546.197 Q 736.74 552.187 736.74 560.406 L 736.74 560.406 L 736.74 600.803 L 736.74 600.803 Q 736.74 609.022 730.82 615.012 L 730.82 615.012 L 730.82 615.012 Q 724.899 621.002 716.541 621.002 L 716.541 621.002 L 675.029 621.002 L 675.029 621.002 Q 666.811 621.002 660.821 615.012 L 660.821 615.012 L 660.821 615.012 Q 654.831 609.022 654.831 600.803 L 654.831 600.803 L 654.831 560.406 L 654.831 560.406 Q 654.831 552.187 660.821 546.197 L 660.821 546.197 L 660.821 546.197 Q 666.811 540.207 675.029 540.207 Z  M 715.427 561.52 L 676.144 561.52 L 676.144 599.689 L 715.427 599.689 L 715.427 561.52 Z  M 767.943 540.207 L 767.943 540.207 L 809.455 540.207 L 809.455 540.207 Q 817.813 540.207 823.734 546.197 L 823.734 546.197 L 823.734 546.197 Q 829.654 552.187 829.654 560.406 L 829.654 560.406 L 829.654 600.803 L 829.654 600.803 Q 829.654 609.022 823.734 615.012 L 823.734 615.012 L 823.734 615.012 Q 817.813 621.002 809.455 621.002 L 809.455 621.002 L 767.943 621.002 L 767.943 621.002 Q 759.725 621.002 753.735 615.012 L 753.735 615.012 L 753.735 615.012 Q 747.745 609.022 747.745 600.803 L 747.745 600.803 L 747.745 560.406 L 747.745 560.406 Q 747.745 552.187 753.735 546.197 L 753.735 546.197 L 753.735 546.197 Q 759.725 540.207 767.943 540.207 Z  M 808.341 561.52 L 769.058 561.52 L 769.058 599.689 L 808.341 599.689 L 808.341 561.52 Z " fill="rgb(73,67,104)"/></g></g><path d=" M 793.15 758.8 L 789.358 760.96 L 787.918 758.464 L 787.918 758.464 Q 788.254 758.272 790.174 757.216 L 790.174 757.216 L 791.758 756.352 L 787.966 754.048 L 789.262 751.744 L 789.262 751.744 Q 791.854 753.28 793.15 754 L 793.15 754 L 793.15 749.44 L 796.03 749.44 L 795.982 754 L 799.918 751.792 L 801.262 754.096 L 797.278 756.4 L 801.166 758.608 L 799.726 761.104 L 795.886 758.8 L 795.838 763.168 L 793.15 763.168 L 793.15 758.8 Z  M 586.03 764.128 L 590.494 764.128 L 590.494 784 L 586.03 784 L 586.03 764.128 Z  M 585.694 756.976 L 585.694 756.976 Q 585.694 755.92 586.51 755.2 L 586.51 755.2 L 586.51 755.2 Q 587.326 754.48 588.382 754.48 L 588.382 754.48 L 588.382 754.48 Q 589.438 754.48 590.23 755.2 L 590.23 755.2 L 590.23 755.2 Q 591.022 755.92 591.022 756.976 L 591.022 756.976 L 591.022 756.976 Q 591.022 758.032 590.23 758.752 L 590.23 758.752 L 590.23 758.752 Q 589.438 759.472 588.382 759.472 L 588.382 759.472 L 588.382 759.472 Q 587.326 759.472 586.51 758.752 L 586.51 758.752 L 586.51 758.752 Q 585.694 758.032 585.694 756.976 L 585.694 756.976 Z  M 610.606 763.36 L 610.606 763.36 Q 613.39 763.36 615.214 765.016 L 615.214 765.016 L 615.214 765.016 Q 617.038 766.672 617.086 769.312 L 617.086 769.312 L 617.086 784 L 612.574 784 L 612.574 770.848 L 612.574 770.848 Q 612.478 769.168 611.566 768.208 L 611.566 768.208 L 611.566 768.208 Q 610.654 767.248 608.83 767.2 L 608.83 767.2 L 608.83 767.2 Q 606.19 767.2 604.462 769.312 L 604.462 769.312 L 604.462 769.312 Q 602.734 771.424 602.734 774.688 L 602.734 774.688 L 602.734 784 L 598.27 784 L 598.27 764.128 L 602.302 764.128 L 602.59 767.968 L 602.59 767.968 Q 603.646 765.808 605.758 764.584 L 605.758 764.584 L 605.758 764.584 Q 607.87 763.36 610.606 763.36 L 610.606 763.36 Z  M 640.942 782.128 L 640.942 782.128 Q 639.598 783.232 637.75 783.856 L 637.75 783.856 L 637.75 783.856 Q 635.902 784.48 633.982 784.48 L 633.982 784.48 L 633.982 784.48 Q 630.766 784.48 628.294 783.184 L 628.294 783.184 L 628.294 783.184 Q 625.822 781.888 624.454 779.512 L 624.454 779.512 L 624.454 779.512 Q 623.086 777.136 623.086 774.016 L 623.086 774.016 L 623.086 774.016 Q 623.086 770.944 624.526 768.568 L 624.526 768.568 L 624.526 768.568 Q 625.966 766.192 628.366 764.896 L 628.366 764.896 L 628.366 764.896 Q 630.766 763.6 633.55 763.6 L 633.55 763.6 L 633.55 763.6 Q 638.11 763.6 641.086 766.096 L 641.086 766.096 L 638.83 769.024 L 638.83 769.024 Q 637.87 768.304 636.622 767.8 L 636.622 767.8 L 636.622 767.8 Q 635.374 767.296 633.934 767.296 L 633.934 767.296 L 633.934 767.296 Q 632.158 767.296 630.694 768.184 L 630.694 768.184 L 630.694 768.184 Q 629.23 769.072 628.39 770.608 L 628.39 770.608 L 628.39 770.608 Q 627.55 772.144 627.55 774.016 L 627.55 774.016 L 627.55 774.016 Q 627.55 775.888 628.438 777.424 L 628.438 777.424 L 628.438 777.424 Q 629.326 778.96 630.862 779.872 L 630.862 779.872 L 630.862 779.872 Q 632.398 780.784 634.366 780.784 L 634.366 780.784 L 634.366 780.784 Q 636.814 780.784 638.638 779.344 L 638.638 779.344 L 640.942 782.128 Z  M 646.702 746.8 L 651.166 746.8 L 651.166 784 L 646.702 784 L 646.702 746.8 Z  M 672.958 764.128 L 677.422 764.128 L 677.422 784 L 673.39 784 L 673.102 780.208 L 673.102 780.208 Q 672.094 782.224 669.982 783.496 L 669.982 783.496 L 669.982 783.496 Q 667.87 784.768 665.278 784.768 L 665.278 784.768 L 665.278 784.768 Q 662.542 784.768 660.79 783.112 L 660.79 783.112 L 660.79 783.112 Q 659.038 781.456 658.942 778.816 L 658.942 778.816 L 658.942 764.128 L 663.406 764.128 L 663.406 777.232 L 663.406 777.232 Q 663.502 778.912 664.39 779.896 L 664.39 779.896 L 664.39 779.896 Q 665.278 780.88 667.054 780.928 L 667.054 780.928 L 667.054 780.928 Q 668.686 780.928 670.03 779.944 L 670.03 779.944 L 670.03 779.944 Q 671.374 778.96 672.166 777.232 L 672.166 777.232 L 672.166 777.232 Q 672.958 775.504 672.958 773.392 L 672.958 773.392 L 672.958 764.128 Z  M 701.47 746.8 L 705.934 746.8 L 705.934 784 L 701.422 784 L 701.422 780.88 L 701.422 780.88 Q 699.982 782.56 697.894 783.52 L 697.894 783.52 L 697.894 783.52 Q 695.806 784.48 693.31 784.48 L 693.31 784.48 L 693.31 784.48 Q 690.526 784.48 688.27 783.136 L 688.27 783.136 L 688.27 783.136 Q 686.014 781.792 684.742 779.368 L 684.742 779.368 L 684.742 779.368 Q 683.47 776.944 683.47 773.776 L 683.47 773.776 L 683.47 773.776 Q 683.47 770.56 684.814 768.184 L 684.814 768.184 L 684.814 768.184 Q 686.158 765.808 688.51 764.56 L 688.51 764.56 L 688.51 764.56 Q 690.862 763.312 693.838 763.312 L 693.838 763.312 L 693.838 763.312 Q 696.094 763.312 698.182 764.248 L 698.182 764.248 L 698.182 764.248 Q 700.27 765.184 701.47 766.816 L 701.47 766.816 L 701.47 746.8 Z  M 694.702 780.64 L 694.702 780.64 Q 697.294 780.64 699.094 779.248 L 699.094 779.248 L 699.094 779.248 Q 700.894 777.856 701.422 775.504 L 701.422 775.504 L 701.422 771.76 L 701.422 771.76 Q 700.846 769.6 698.974 768.232 L 698.974 768.232 L 698.974 768.232 Q 697.102 766.864 694.702 766.864 L 694.702 766.864 L 694.702 766.864 Q 692.878 766.864 691.342 767.752 L 691.342 767.752 L 691.342 767.752 Q 689.806 768.64 688.894 770.2 L 688.894 770.2 L 688.894 770.2 Q 687.982 771.76 687.982 773.728 L 687.982 773.728 L 687.982 773.728 Q 687.982 775.648 688.894 777.232 L 688.894 777.232 L 688.894 777.232 Q 689.806 778.816 691.342 779.728 L 691.342 779.728 L 691.342 779.728 Q 692.878 780.64 694.702 780.64 L 694.702 780.64 Z  M 722.974 780.64 L 722.974 780.64 Q 725.47 780.64 727.822 778.912 L 727.822 778.912 L 729.886 782.224 L 729.886 782.224 Q 728.302 783.28 726.454 783.88 L 726.454 783.88 L 726.454 783.88 Q 724.606 784.48 722.878 784.48 L 722.878 784.48 L 722.878 784.48 Q 719.566 784.48 717.094 783.112 L 717.094 783.112 L 717.094 783.112 Q 714.622 781.744 713.278 779.344 L 713.278 779.344 L 713.278 779.344 Q 711.934 776.944 711.934 773.92 L 711.934 773.92 L 711.934 773.92 Q 711.934 770.992 713.398 768.568 L 713.398 768.568 L 713.398 768.568 Q 714.862 766.144 717.406 764.728 L 717.406 764.728 L 717.406 764.728 Q 719.95 763.312 722.974 763.312 L 722.974 763.312 L 722.974 763.312 Q 726.862 763.312 729.478 765.592 L 729.478 765.592 L 729.478 765.592 Q 732.094 767.872 733.054 771.952 L 733.054 771.952 L 717.31 777.472 L 717.31 777.472 Q 718.174 778.96 719.638 779.8 L 719.638 779.8 L 719.638 779.8 Q 721.102 780.64 722.974 780.64 L 722.974 780.64 Z  M 722.638 766.864 L 722.638 766.864 Q 719.902 766.864 718.126 768.784 L 718.126 768.784 L 718.126 768.784 Q 716.35 770.704 716.35 773.68 L 716.35 773.68 L 716.35 773.68 Q 716.35 774.4 716.398 774.784 L 716.398 774.784 L 727.966 770.512 L 727.966 770.512 Q 727.246 768.88 725.926 767.872 L 725.926 767.872 L 725.926 767.872 Q 724.606 766.864 722.638 766.864 L 722.638 766.864 Z  M 754.894 746.8 L 759.358 746.8 L 759.358 784 L 754.846 784 L 754.846 780.88 L 754.846 780.88 Q 753.406 782.56 751.318 783.52 L 751.318 783.52 L 751.318 783.52 Q 749.23 784.48 746.734 784.48 L 746.734 784.48 L 746.734 784.48 Q 743.95 784.48 741.694 783.136 L 741.694 783.136 L 741.694 783.136 Q 739.438 781.792 738.166 779.368 L 738.166 779.368 L 738.166 779.368 Q 736.894 776.944 736.894 773.776 L 736.894 773.776 L 736.894 773.776 Q 736.894 770.56 738.238 768.184 L 738.238 768.184 L 738.238 768.184 Q 739.582 765.808 741.934 764.56 L 741.934 764.56 L 741.934 764.56 Q 744.286 763.312 747.262 763.312 L 747.262 763.312 L 747.262 763.312 Q 749.518 763.312 751.606 764.248 L 751.606 764.248 L 751.606 764.248 Q 753.694 765.184 754.894 766.816 L 754.894 766.816 L 754.894 746.8 Z  M 748.126 780.64 L 748.126 780.64 Q 750.718 780.64 752.518 779.248 L 752.518 779.248 L 752.518 779.248 Q 754.318 777.856 754.846 775.504 L 754.846 775.504 L 754.846 771.76 L 754.846 771.76 Q 754.27 769.6 752.398 768.232 L 752.398 768.232 L 752.398 768.232 Q 750.526 766.864 748.126 766.864 L 748.126 766.864 L 748.126 766.864 Q 746.302 766.864 744.766 767.752 L 744.766 767.752 L 744.766 767.752 Q 743.23 768.64 742.318 770.2 L 742.318 770.2 L 742.318 770.2 Q 741.406 771.76 741.406 773.728 L 741.406 773.728 L 741.406 773.728 Q 741.406 775.648 742.318 777.232 L 742.318 777.232 L 742.318 777.232 Q 743.23 778.816 744.766 779.728 L 744.766 779.728 L 744.766 779.728 Q 746.302 780.64 748.126 780.64 L 748.126 780.64 Z  M 764.83 781.456 L 764.83 781.456 Q 764.83 780.4 765.598 779.632 L 765.598 779.632 L 765.598 779.632 Q 766.366 778.864 767.374 778.864 L 767.374 778.864 L 767.374 778.864 Q 768.286 778.864 769.078 779.632 L 769.078 779.632 L 769.078 779.632 Q 769.87 780.4 769.87 781.456 L 769.87 781.456 L 769.87 781.456 Q 769.87 782.56 769.102 783.28 L 769.102 783.28 L 769.102 783.28 Q 768.334 784 767.374 784 L 767.374 784 L 767.374 784 Q 766.366 784 765.598 783.28 L 765.598 783.28 L 765.598 783.28 Q 764.83 782.56 764.83 781.456 L 764.83 781.456 Z  M 392.59 763.312 L 392.59 763.312 Q 395.278 763.312 397.51 764.608 L 397.51 764.608 L 397.51 764.608 Q 399.742 765.904 401.038 768.256 L 401.038 768.256 L 401.038 768.256 Q 402.334 770.608 402.334 773.728 L 402.334 773.728 L 402.334 773.728 Q 402.334 776.992 400.942 779.44 L 400.942 779.44 L 400.942 779.44 Q 399.55 781.888 397.174 783.184 L 397.174 783.184 L 397.174 783.184 Q 394.798 784.48 392.014 784.48 L 392.014 784.48 L 392.014 784.48 Q 389.566 784.48 387.574 783.52 L 387.574 783.52 L 387.574 783.52 Q 385.582 782.56 384.334 780.928 L 384.334 780.928 L 384.334 784 L 379.87 784 L 379.87 746.8 L 384.334 746.8 L 384.334 766.768 L 384.334 766.768 Q 385.582 765.184 387.766 764.248 L 387.766 764.248 L 387.766 764.248 Q 389.95 763.312 392.59 763.312 L 392.59 763.312 Z  M 391.054 780.64 L 391.054 780.64 Q 393.982 780.64 395.878 778.672 L 395.878 778.672 L 395.878 778.672 Q 397.774 776.704 397.774 773.728 L 397.774 773.728 L 397.774 773.728 Q 397.774 771.808 396.886 770.248 L 396.886 770.248 L 396.886 770.248 Q 395.998 768.688 394.462 767.776 L 394.462 767.776 L 394.462 767.776 Q 392.926 766.864 391.054 766.864 L 391.054 766.864 L 391.054 766.864 Q 388.606 766.864 386.758 768.184 L 386.758 768.184 L 386.758 768.184 Q 384.91 769.504 384.334 771.664 L 384.334 771.664 L 384.334 775.696 L 384.334 775.696 Q 384.91 777.856 386.734 779.248 L 386.734 779.248 L 386.734 779.248 Q 388.558 780.64 391.054 780.64 L 391.054 780.64 Z  M 424.606 764.128 L 428.734 764.128 L 428.734 784 L 424.27 784 L 424.27 780.736 L 424.27 780.736 Q 423.214 782.128 421.198 783.304 L 421.198 783.304 L 421.198 783.304 Q 419.182 784.48 416.638 784.48 L 416.638 784.48 L 416.638 784.48 Q 413.806 784.48 411.526 783.256 L 411.526 783.256 L 411.526 783.256 Q 409.246 782.032 407.926 779.68 L 407.926 779.68 L 407.926 779.68 Q 406.606 777.328 406.606 774.064 L 406.606 774.064 L 406.606 774.064 Q 406.606 770.8 407.974 768.376 L 407.974 768.376 L 407.974 768.376 Q 409.342 765.952 411.67 764.632 L 411.67 764.632 L 411.67 764.632 Q 413.998 763.312 416.83 763.312 L 416.83 763.312 L 416.83 763.312 Q 419.374 763.312 421.246 764.416 L 421.246 764.416 L 421.246 764.416 Q 423.118 765.52 424.27 767.296 L 424.27 767.296 L 424.606 764.128 Z  M 417.838 780.784 L 417.838 780.784 Q 420.286 780.784 422.038 779.416 L 422.038 779.416 L 422.038 779.416 Q 423.79 778.048 424.27 775.696 L 424.27 775.696 L 424.27 771.76 L 424.27 771.76 Q 423.694 769.648 421.87 768.328 L 421.87 768.328 L 421.87 768.328 Q 420.046 767.008 417.694 767.008 L 417.694 767.008 L 417.694 767.008 Q 415.918 767.008 414.406 767.872 L 414.406 767.872 L 414.406 767.872 Q 412.894 768.736 412.006 770.296 L 412.006 770.296 L 412.006 770.296 Q 411.118 771.856 411.118 773.824 L 411.118 773.824 L 411.118 773.824 Q 411.118 775.744 412.03 777.328 L 412.03 777.328 L 412.03 777.328 Q 412.942 778.912 414.478 779.848 L 414.478 779.848 L 414.478 779.848 Q 416.014 780.784 417.838 780.784 L 417.838 780.784 Z  M 438.43 755.392 L 442.942 755.392 L 442.942 764.176 L 448.366 764.176 L 448.366 767.728 L 442.942 767.728 L 442.942 784 L 438.43 784 L 438.43 767.728 L 434.782 767.728 L 434.782 764.176 L 438.43 764.176 L 438.43 755.392 Z  M 455.71 755.392 L 460.222 755.392 L 460.222 764.176 L 465.646 764.176 L 465.646 767.728 L 460.222 767.728 L 460.222 784 L 455.71 784 L 455.71 767.728 L 452.062 767.728 L 452.062 764.176 L 455.71 764.176 L 455.71 755.392 Z  M 480.382 780.64 L 480.382 780.64 Q 482.878 780.64 485.23 778.912 L 485.23 778.912 L 487.294 782.224 L 487.294 782.224 Q 485.71 783.28 483.862 783.88 L 483.862 783.88 L 483.862 783.88 Q 482.014 784.48 480.286 784.48 L 480.286 784.48 L 480.286 784.48 Q 476.974 784.48 474.502 783.112 L 474.502 783.112 L 474.502 783.112 Q 472.03 781.744 470.686 779.344 L 470.686 779.344 L 470.686 779.344 Q 469.342 776.944 469.342 773.92 L 469.342 773.92 L 469.342 773.92 Q 469.342 770.992 470.806 768.568 L 470.806 768.568 L 470.806 768.568 Q 472.27 766.144 474.814 764.728 L 474.814 764.728 L 474.814 764.728 Q 477.358 763.312 480.382 763.312 L 480.382 763.312 L 480.382 763.312 Q 484.27 763.312 486.886 765.592 L 486.886 765.592 L 486.886 765.592 Q 489.502 767.872 490.462 771.952 L 490.462 771.952 L 474.718 777.472 L 474.718 777.472 Q 475.582 778.96 477.046 779.8 L 477.046 779.8 L 477.046 779.8 Q 478.51 780.64 480.382 780.64 L 480.382 780.64 Z  M 480.046 766.864 L 480.046 766.864 Q 477.31 766.864 475.534 768.784 L 475.534 768.784 L 475.534 768.784 Q 473.758 770.704 473.758 773.68 L 473.758 773.68 L 473.758 773.68 Q 473.758 774.4 473.806 774.784 L 473.806 774.784 L 485.374 770.512 L 485.374 770.512 Q 484.654 768.88 483.334 767.872 L 483.334 767.872 L 483.334 767.872 Q 482.014 766.864 480.046 766.864 L 480.046 766.864 Z  M 500.35 768.832 L 500.35 768.832 Q 501.118 767.2 502.534 765.952 L 502.534 765.952 L 502.534 765.952 Q 503.95 764.704 505.534 764.032 L 505.534 764.032 L 505.534 764.032 Q 507.118 763.36 508.318 763.312 L 508.318 763.312 L 508.126 767.776 L 508.126 767.776 Q 505.966 767.68 504.214 768.64 L 504.214 768.64 L 504.214 768.64 Q 502.462 769.6 501.478 771.304 L 501.478 771.304 L 501.478 771.304 Q 500.494 773.008 500.494 774.928 L 500.494 774.928 L 500.494 784 L 496.03 784 L 496.03 764.128 L 500.014 764.128 L 500.35 768.832 Z  M 514.078 764.128 L 518.542 764.128 L 518.542 784 L 514.078 784 L 514.078 764.128 Z  M 513.742 756.976 L 513.742 756.976 Q 513.742 755.92 514.558 755.2 L 514.558 755.2 L 514.558 755.2 Q 515.374 754.48 516.43 754.48 L 516.43 754.48 L 516.43 754.48 Q 517.486 754.48 518.278 755.2 L 518.278 755.2 L 518.278 755.2 Q 519.07 755.92 519.07 756.976 L 519.07 756.976 L 519.07 756.976 Q 519.07 758.032 518.278 758.752 L 518.278 758.752 L 518.278 758.752 Q 517.486 759.472 516.43 759.472 L 516.43 759.472 L 516.43 759.472 Q 515.374 759.472 514.558 758.752 L 514.558 758.752 L 514.558 758.752 Q 513.742 758.032 513.742 756.976 L 513.742 756.976 Z  M 535.63 780.64 L 535.63 780.64 Q 538.126 780.64 540.478 778.912 L 540.478 778.912 L 542.542 782.224 L 542.542 782.224 Q 540.958 783.28 539.11 783.88 L 539.11 783.88 L 539.11 783.88 Q 537.262 784.48 535.534 784.48 L 535.534 784.48 L 535.534 784.48 Q 532.222 784.48 529.75 783.112 L 529.75 783.112 L 529.75 783.112 Q 527.278 781.744 525.934 779.344 L 525.934 779.344 L 525.934 779.344 Q 524.59 776.944 524.59 773.92 L 524.59 773.92 L 524.59 773.92 Q 524.59 770.992 526.054 768.568 L 526.054 768.568 L 526.054 768.568 Q 527.518 766.144 530.062 764.728 L 530.062 764.728 L 530.062 764.728 Q 532.606 763.312 535.63 763.312 L 535.63 763.312 L 535.63 763.312 Q 539.518 763.312 542.134 765.592 L 542.134 765.592 L 542.134 765.592 Q 544.75 767.872 545.71 771.952 L 545.71 771.952 L 529.966 777.472 L 529.966 777.472 Q 530.83 778.96 532.294 779.8 L 532.294 779.8 L 532.294 779.8 Q 533.758 780.64 535.63 780.64 L 535.63 780.64 Z  M 535.294 766.864 L 535.294 766.864 Q 532.558 766.864 530.782 768.784 L 530.782 768.784 L 530.782 768.784 Q 529.006 770.704 529.006 773.68 L 529.006 773.68 L 529.006 773.68 Q 529.006 774.4 529.054 774.784 L 529.054 774.784 L 540.622 770.512 L 540.622 770.512 Q 539.902 768.88 538.582 767.872 L 538.582 767.872 L 538.582 767.872 Q 537.262 766.864 535.294 766.864 L 535.294 766.864 Z  M 556.894 784.432 L 556.894 784.432 Q 554.686 784.432 552.694 783.664 L 552.694 783.664 L 552.694 783.664 Q 550.702 782.896 549.454 781.408 L 549.454 781.408 L 551.374 778.816 L 551.374 778.816 Q 552.574 779.968 553.894 780.592 L 553.894 780.592 L 553.894 780.592 Q 555.214 781.216 556.51 781.216 L 556.51 781.216 L 556.51 781.216 Q 558.094 781.216 559.102 780.592 L 559.102 780.592 L 559.102 780.592 Q 560.11 779.968 560.11 778.672 L 560.11 778.672 L 560.11 778.672 Q 560.11 777.664 559.486 777.04 L 559.486 777.04 L 559.486 777.04 Q 558.862 776.416 558.07 776.128 L 558.07 776.128 L 558.07 776.128 Q 557.278 775.84 555.406 775.264 L 555.406 775.264 L 555.406 775.264 Q 550.318 773.632 550.318 769.456 L 550.318 769.456 L 550.318 769.456 Q 550.318 766.96 552.166 765.184 L 552.166 765.184 L 552.166 765.184 Q 554.014 763.408 557.326 763.408 L 557.326 763.408 L 557.326 763.408 Q 559.438 763.408 561.07 763.936 L 561.07 763.936 L 561.07 763.936 Q 562.702 764.464 564.094 765.616 L 564.094 765.616 L 562.318 768.352 L 562.318 768.352 Q 561.55 767.536 560.374 767.056 L 560.374 767.056 L 560.374 767.056 Q 559.198 766.576 558.142 766.528 L 558.142 766.528 L 558.142 766.528 Q 556.798 766.528 555.838 767.176 L 555.838 767.176 L 555.838 767.176 Q 554.878 767.824 554.878 768.928 L 554.878 768.928 L 554.878 768.928 Q 554.878 769.84 555.502 770.44 L 555.502 770.44 L 555.502 770.44 Q 556.126 771.04 556.798 771.304 L 556.798 771.304 L 556.798 771.304 Q 557.47 771.568 559.438 772.192 L 559.438 772.192 L 559.438 772.192 Q 561.886 773.008 563.254 774.304 L 563.254 774.304 L 563.254 774.304 Q 564.622 775.6 564.622 777.808 L 564.622 777.808 L 564.622 777.808 Q 564.622 780.688 562.606 782.56 L 562.606 782.56 L 562.606 782.56 Q 560.59 784.432 556.894 784.432 L 556.894 784.432 Z  M 753.67 715.312 L 753.67 715.312 Q 756.55 715.312 758.254 716.944 L 758.254 716.944 L 758.254 716.944 Q 759.958 718.576 760.054 721.264 L 760.054 721.264 L 760.054 736 L 755.59 736 L 755.59 722.896 L 755.59 722.896 Q 755.446 719.392 752.422 719.2 L 752.422 719.2 L 752.422 719.2 Q 750.694 719.2 749.326 720.232 L 749.326 720.232 L 749.326 720.232 Q 747.958 721.264 747.19 722.944 L 747.19 722.944 L 747.19 722.944 Q 746.422 724.624 746.374 726.544 L 746.374 726.544 L 746.374 736 L 741.862 736 L 741.862 722.896 L 741.862 722.896 Q 741.718 719.392 738.598 719.2 L 738.598 719.2 L 738.598 719.2 Q 736.918 719.2 735.55 720.232 L 735.55 720.232 L 735.55 720.232 Q 734.182 721.264 733.414 722.968 L 733.414 722.968 L 733.414 722.968 Q 732.646 724.672 732.646 726.592 L 732.646 726.592 L 732.646 736 L 728.182 736 L 728.182 716.128 L 732.214 716.128 L 732.55 719.872 L 732.55 719.872 Q 733.702 717.712 735.694 716.512 L 735.694 716.512 L 735.694 716.512 Q 737.686 715.312 740.23 715.312 L 740.23 715.312 L 740.23 715.312 Q 742.63 715.312 744.262 716.44 L 744.262 716.44 L 744.262 716.44 Q 745.894 717.568 746.374 719.536 L 746.374 719.536 L 746.374 719.536 Q 747.622 717.568 749.542 716.44 L 749.542 716.44 L 749.542 716.44 Q 751.462 715.312 753.67 715.312 L 753.67 715.312 Z  M 767.782 716.128 L 772.246 716.128 L 772.246 736 L 767.782 736 L 767.782 716.128 Z  M 767.446 708.976 L 767.446 708.976 Q 767.446 707.92 768.262 707.2 L 768.262 707.2 L 768.262 707.2 Q 769.078 706.48 770.134 706.48 L 770.134 706.48 L 770.134 706.48 Q 771.19 706.48 771.982 707.2 L 771.982 707.2 L 771.982 707.2 Q 772.774 707.92 772.774 708.976 L 772.774 708.976 L 772.774 708.976 Q 772.774 710.032 771.982 710.752 L 771.982 710.752 L 771.982 710.752 Q 771.19 711.472 770.134 711.472 L 770.134 711.472 L 770.134 711.472 Q 769.078 711.472 768.262 710.752 L 768.262 710.752 L 768.262 710.752 Q 767.446 710.032 767.446 708.976 L 767.446 708.976 Z  M 796.294 698.8 L 800.758 698.8 L 800.758 736 L 796.246 736 L 796.246 732.88 L 796.246 732.88 Q 794.806 734.56 792.718 735.52 L 792.718 735.52 L 792.718 735.52 Q 790.63 736.48 788.134 736.48 L 788.134 736.48 L 788.134 736.48 Q 785.35 736.48 783.094 735.136 L 783.094 735.136 L 783.094 735.136 Q 780.838 733.792 779.566 731.368 L 779.566 731.368 L 779.566 731.368 Q 778.294 728.944 778.294 725.776 L 778.294 725.776 L 778.294 725.776 Q 778.294 722.56 779.638 720.184 L 779.638 720.184 L 779.638 720.184 Q 780.982 717.808 783.334 716.56 L 783.334 716.56 L 783.334 716.56 Q 785.686 715.312 788.662 715.312 L 788.662 715.312 L 788.662 715.312 Q 790.918 715.312 793.006 716.248 L 793.006 716.248 L 793.006 716.248 Q 795.094 717.184 796.294 718.816 L 796.294 718.816 L 796.294 698.8 Z  M 789.526 732.64 L 789.526 732.64 Q 792.118 732.64 793.918 731.248 L 793.918 731.248 L 793.918 731.248 Q 795.718 729.856 796.246 727.504 L 796.246 727.504 L 796.246 723.76 L 796.246 723.76 Q 795.67 721.6 793.798 720.232 L 793.798 720.232 L 793.798 720.232 Q 791.926 718.864 789.526 718.864 L 789.526 718.864 L 789.526 718.864 Q 787.702 718.864 786.166 719.752 L 786.166 719.752 L 786.166 719.752 Q 784.63 720.64 783.718 722.2 L 783.718 722.2 L 783.718 722.2 Q 782.806 723.76 782.806 725.728 L 782.806 725.728 L 782.806 725.728 Q 782.806 727.648 783.718 729.232 L 783.718 729.232 L 783.718 729.232 Q 784.63 730.816 786.166 731.728 L 786.166 731.728 L 786.166 731.728 Q 787.702 732.64 789.526 732.64 L 789.526 732.64 Z  M 824.758 698.8 L 829.222 698.8 L 829.222 736 L 824.71 736 L 824.71 732.88 L 824.71 732.88 Q 823.27 734.56 821.182 735.52 L 821.182 735.52 L 821.182 735.52 Q 819.094 736.48 816.598 736.48 L 816.598 736.48 L 816.598 736.48 Q 813.814 736.48 811.558 735.136 L 811.558 735.136 L 811.558 735.136 Q 809.302 733.792 808.03 731.368 L 808.03 731.368 L 808.03 731.368 Q 806.758 728.944 806.758 725.776 L 806.758 725.776 L 806.758 725.776 Q 806.758 722.56 808.102 720.184 L 808.102 720.184 L 808.102 720.184 Q 809.446 717.808 811.798 716.56 L 811.798 716.56 L 811.798 716.56 Q 814.15 715.312 817.126 715.312 L 817.126 715.312 L 817.126 715.312 Q 819.382 715.312 821.47 716.248 L 821.47 716.248 L 821.47 716.248 Q 823.558 717.184 824.758 718.816 L 824.758 718.816 L 824.758 698.8 Z  M 817.99 732.64 L 817.99 732.64 Q 820.582 732.64 822.382 731.248 L 822.382 731.248 L 822.382 731.248 Q 824.182 729.856 824.71 727.504 L 824.71 727.504 L 824.71 723.76 L 824.71 723.76 Q 824.134 721.6 822.262 720.232 L 822.262 720.232 L 822.262 720.232 Q 820.39 718.864 817.99 718.864 L 817.99 718.864 L 817.99 718.864 Q 816.166 718.864 814.63 719.752 L 814.63 719.752 L 814.63 719.752 Q 813.094 720.64 812.182 722.2 L 812.182 722.2 L 812.182 722.2 Q 811.27 723.76 811.27 725.728 L 811.27 725.728 L 811.27 725.728 Q 811.27 727.648 812.182 729.232 L 812.182 729.232 L 812.182 729.232 Q 813.094 730.816 814.63 731.728 L 814.63 731.728 L 814.63 731.728 Q 816.166 732.64 817.99 732.64 L 817.99 732.64 Z  M 836.95 698.8 L 841.414 698.8 L 841.414 736 L 836.95 736 L 836.95 698.8 Z  M 858.502 732.64 L 858.502 732.64 Q 860.998 732.64 863.35 730.912 L 863.35 730.912 L 865.414 734.224 L 865.414 734.224 Q 863.83 735.28 861.982 735.88 L 861.982 735.88 L 861.982 735.88 Q 860.134 736.48 858.406 736.48 L 858.406 736.48 L 858.406 736.48 Q 855.094 736.48 852.622 735.112 L 852.622 735.112 L 852.622 735.112 Q 850.15 733.744 848.806 731.344 L 848.806 731.344 L 848.806 731.344 Q 847.462 728.944 847.462 725.92 L 847.462 725.92 L 847.462 725.92 Q 847.462 722.992 848.926 720.568 L 848.926 720.568 L 848.926 720.568 Q 850.39 718.144 852.934 716.728 L 852.934 716.728 L 852.934 716.728 Q 855.478 715.312 858.502 715.312 L 858.502 715.312 L 858.502 715.312 Q 862.39 715.312 865.006 717.592 L 865.006 717.592 L 865.006 717.592 Q 867.622 719.872 868.582 723.952 L 868.582 723.952 L 852.838 729.472 L 852.838 729.472 Q 853.702 730.96 855.166 731.8 L 855.166 731.8 L 855.166 731.8 Q 856.63 732.64 858.502 732.64 L 858.502 732.64 Z  M 858.166 718.864 L 858.166 718.864 Q 855.43 718.864 853.654 720.784 L 853.654 720.784 L 853.654 720.784 Q 851.878 722.704 851.878 725.68 L 851.878 725.68 L 851.878 725.68 Q 851.878 726.4 851.926 726.784 L 851.926 726.784 L 863.494 722.512 L 863.494 722.512 Q 862.774 720.88 861.454 719.872 L 861.454 719.872 L 861.454 719.872 Q 860.134 718.864 858.166 718.864 L 858.166 718.864 Z  M 896.758 716.128 L 901.174 716.128 L 892.006 737.2 L 885.622 723.568 L 879.814 737.2 L 870.598 716.128 L 875.014 716.128 L 880.342 728.176 L 884.038 719.536 L 882.454 716.128 L 886.342 716.128 L 891.718 728.464 L 896.758 716.128 Z  M 922.054 716.128 L 926.182 716.128 L 926.182 736 L 921.718 736 L 921.718 732.736 L 921.718 732.736 Q 920.662 734.128 918.646 735.304 L 918.646 735.304 L 918.646 735.304 Q 916.63 736.48 914.086 736.48 L 914.086 736.48 L 914.086 736.48 Q 911.254 736.48 908.974 735.256 L 908.974 735.256 L 908.974 735.256 Q 906.694 734.032 905.374 731.68 L 905.374 731.68 L 905.374 731.68 Q 904.054 729.328 904.054 726.064 L 904.054 726.064 L 904.054 726.064 Q 904.054 722.8 905.422 720.376 L 905.422 720.376 L 905.422 720.376 Q 906.79 717.952 909.118 716.632 L 909.118 716.632 L 909.118 716.632 Q 911.446 715.312 914.278 715.312 L 914.278 715.312 L 914.278 715.312 Q 916.822 715.312 918.694 716.416 L 918.694 716.416 L 918.694 716.416 Q 920.566 717.52 921.718 719.296 L 921.718 719.296 L 922.054 716.128 Z  M 915.286 732.784 L 915.286 732.784 Q 917.734 732.784 919.486 731.416 L 919.486 731.416 L 919.486 731.416 Q 921.238 730.048 921.718 727.696 L 921.718 727.696 L 921.718 723.76 L 921.718 723.76 Q 921.142 721.648 919.318 720.328 L 919.318 720.328 L 919.318 720.328 Q 917.494 719.008 915.142 719.008 L 915.142 719.008 L 915.142 719.008 Q 913.366 719.008 911.854 719.872 L 911.854 719.872 L 911.854 719.872 Q 910.342 720.736 909.454 722.296 L 909.454 722.296 L 909.454 722.296 Q 908.566 723.856 908.566 725.824 L 908.566 725.824 L 908.566 725.824 Q 908.566 727.744 909.478 729.328 L 909.478 729.328 L 909.478 729.328 Q 910.39 730.912 911.926 731.848 L 911.926 731.848 L 911.926 731.848 Q 913.462 732.784 915.286 732.784 L 915.286 732.784 Z  M 938.278 720.832 L 938.278 720.832 Q 939.046 719.2 940.462 717.952 L 940.462 717.952 L 940.462 717.952 Q 941.878 716.704 943.462 716.032 L 943.462 716.032 L 943.462 716.032 Q 945.046 715.36 946.246 715.312 L 946.246 715.312 L 946.054 719.776 L 946.054 719.776 Q 943.894 719.68 942.142 720.64 L 942.142 720.64 L 942.142 720.64 Q 940.39 721.6 939.406 723.304 L 939.406 723.304 L 939.406 723.304 Q 938.422 725.008 938.422 726.928 L 938.422 726.928 L 938.422 736 L 933.958 736 L 933.958 716.128 L 937.942 716.128 L 938.278 720.832 Z  M 960.454 732.64 L 960.454 732.64 Q 962.95 732.64 965.302 730.912 L 965.302 730.912 L 967.366 734.224 L 967.366 734.224 Q 965.782 735.28 963.934 735.88 L 963.934 735.88 L 963.934 735.88 Q 962.086 736.48 960.358 736.48 L 960.358 736.48 L 960.358 736.48 Q 957.046 736.48 954.574 735.112 L 954.574 735.112 L 954.574 735.112 Q 952.102 733.744 950.758 731.344 L 950.758 731.344 L 950.758 731.344 Q 949.414 728.944 949.414 725.92 L 949.414 725.92 L 949.414 725.92 Q 949.414 722.992 950.878 720.568 L 950.878 720.568 L 950.878 720.568 Q 952.342 718.144 954.886 716.728 L 954.886 716.728 L 954.886 716.728 Q 957.43 715.312 960.454 715.312 L 960.454 715.312 L 960.454 715.312 Q 964.342 715.312 966.958 717.592 L 966.958 717.592 L 966.958 717.592 Q 969.574 719.872 970.534 723.952 L 970.534 723.952 L 954.79 729.472 L 954.79 729.472 Q 955.654 730.96 957.118 731.8 L 957.118 731.8 L 957.118 731.8 Q 958.582 732.64 960.454 732.64 L 960.454 732.64 Z  M 960.118 718.864 L 960.118 718.864 Q 957.382 718.864 955.606 720.784 L 955.606 720.784 L 955.606 720.784 Q 953.83 722.704 953.83 725.68 L 953.83 725.68 L 953.83 725.68 Q 953.83 726.4 953.878 726.784 L 953.878 726.784 L 965.446 722.512 L 965.446 722.512 Q 964.726 720.88 963.406 719.872 L 963.406 719.872 L 963.406 719.872 Q 962.086 718.864 960.118 718.864 L 960.118 718.864 Z  M 980.182 731.776 L 977.398 738.496 L 976.006 741.856 L 972.358 741.856 L 973.606 738.496 L 973.606 738.496 Q 975.766 732.688 976.102 731.776 L 976.102 731.776 L 980.182 731.776 Z  M 589.798 736.432 L 589.798 736.432 Q 587.59 736.432 585.598 735.664 L 585.598 735.664 L 585.598 735.664 Q 583.606 734.896 582.358 733.408 L 582.358 733.408 L 584.278 730.816 L 584.278 730.816 Q 585.478 731.968 586.798 732.592 L 586.798 732.592 L 586.798 732.592 Q 588.118 733.216 589.414 733.216 L 589.414 733.216 L 589.414 733.216 Q 590.998 733.216 592.006 732.592 L 592.006 732.592 L 592.006 732.592 Q 593.014 731.968 593.014 730.672 L 593.014 730.672 L 593.014 730.672 Q 593.014 729.664 592.39 729.04 L 592.39 729.04 L 592.39 729.04 Q 591.766 728.416 590.974 728.128 L 590.974 728.128 L 590.974 728.128 Q 590.182 727.84 588.31 727.264 L 588.31 727.264 L 588.31 727.264 Q 583.222 725.632 583.222 721.456 L 583.222 721.456 L 583.222 721.456 Q 583.222 718.96 585.07 717.184 L 585.07 717.184 L 585.07 717.184 Q 586.918 715.408 590.23 715.408 L 590.23 715.408 L 590.23 715.408 Q 592.342 715.408 593.974 715.936 L 593.974 715.936 L 593.974 715.936 Q 595.606 716.464 596.998 717.616 L 596.998 717.616 L 595.222 720.352 L 595.222 720.352 Q 594.454 719.536 593.278 719.056 L 593.278 719.056 L 593.278 719.056 Q 592.102 718.576 591.046 718.528 L 591.046 718.528 L 591.046 718.528 Q 589.702 718.528 588.742 719.176 L 588.742 719.176 L 588.742 719.176 Q 587.782 719.824 587.782 720.928 L 587.782 720.928 L 587.782 720.928 Q 587.782 721.84 588.406 722.44 L 588.406 722.44 L 588.406 722.44 Q 589.03 723.04 589.702 723.304 L 589.702 723.304 L 589.702 723.304 Q 590.374 723.568 592.342 724.192 L 592.342 724.192 L 592.342 724.192 Q 594.79 725.008 596.158 726.304 L 596.158 726.304 L 596.158 726.304 Q 597.526 727.6 597.526 729.808 L 597.526 729.808 L 597.526 729.808 Q 597.526 732.688 595.51 734.56 L 595.51 734.56 L 595.51 734.56 Q 593.494 736.432 589.798 736.432 L 589.798 736.432 Z  M 613.078 732.64 L 613.078 732.64 Q 615.574 732.64 617.926 730.912 L 617.926 730.912 L 619.99 734.224 L 619.99 734.224 Q 618.406 735.28 616.558 735.88 L 616.558 735.88 L 616.558 735.88 Q 614.71 736.48 612.982 736.48 L 612.982 736.48 L 612.982 736.48 Q 609.67 736.48 607.198 735.112 L 607.198 735.112 L 607.198 735.112 Q 604.726 733.744 603.382 731.344 L 603.382 731.344 L 603.382 731.344 Q 602.038 728.944 602.038 725.92 L 602.038 725.92 L 602.038 725.92 Q 602.038 722.992 603.502 720.568 L 603.502 720.568 L 603.502 720.568 Q 604.966 718.144 607.51 716.728 L 607.51 716.728 L 607.51 716.728 Q 610.054 715.312 613.078 715.312 L 613.078 715.312 L 613.078 715.312 Q 616.966 715.312 619.582 717.592 L 619.582 717.592 L 619.582 717.592 Q 622.198 719.872 623.158 723.952 L 623.158 723.952 L 607.414 729.472 L 607.414 729.472 Q 608.278 730.96 609.742 731.8 L 609.742 731.8 L 609.742 731.8 Q 611.206 732.64 613.078 732.64 L 613.078 732.64 Z  M 612.742 718.864 L 612.742 718.864 Q 610.006 718.864 608.23 720.784 L 608.23 720.784 L 608.23 720.784 Q 606.454 722.704 606.454 725.68 L 606.454 725.68 L 606.454 725.68 Q 606.454 726.4 606.502 726.784 L 606.502 726.784 L 618.07 722.512 L 618.07 722.512 Q 617.35 720.88 616.03 719.872 L 616.03 719.872 L 616.03 719.872 Q 614.71 718.864 612.742 718.864 L 612.742 718.864 Z  M 633.046 720.832 L 633.046 720.832 Q 633.814 719.2 635.23 717.952 L 635.23 717.952 L 635.23 717.952 Q 636.646 716.704 638.23 716.032 L 638.23 716.032 L 638.23 716.032 Q 639.814 715.36 641.014 715.312 L 641.014 715.312 L 640.822 719.776 L 640.822 719.776 Q 638.662 719.68 636.91 720.64 L 636.91 720.64 L 636.91 720.64 Q 635.158 721.6 634.174 723.304 L 634.174 723.304 L 634.174 723.304 Q 633.19 725.008 633.19 726.928 L 633.19 726.928 L 633.19 736 L 628.726 736 L 628.726 716.128 L 632.71 716.128 L 633.046 720.832 Z  M 660.694 716.128 L 665.686 716.128 L 655.078 736.576 L 654.838 736.576 L 643.798 716.128 L 649.126 716.128 L 655.126 728.8 L 660.694 716.128 Z  M 679.318 732.64 L 679.318 732.64 Q 681.814 732.64 684.166 730.912 L 684.166 730.912 L 686.23 734.224 L 686.23 734.224 Q 684.646 735.28 682.798 735.88 L 682.798 735.88 L 682.798 735.88 Q 680.95 736.48 679.222 736.48 L 679.222 736.48 L 679.222 736.48 Q 675.91 736.48 673.438 735.112 L 673.438 735.112 L 673.438 735.112 Q 670.966 733.744 669.622 731.344 L 669.622 731.344 L 669.622 731.344 Q 668.278 728.944 668.278 725.92 L 668.278 725.92 L 668.278 725.92 Q 668.278 722.992 669.742 720.568 L 669.742 720.568 L 669.742 720.568 Q 671.206 718.144 673.75 716.728 L 673.75 716.728 L 673.75 716.728 Q 676.294 715.312 679.318 715.312 L 679.318 715.312 L 679.318 715.312 Q 683.206 715.312 685.822 717.592 L 685.822 717.592 L 685.822 717.592 Q 688.438 719.872 689.398 723.952 L 689.398 723.952 L 673.654 729.472 L 673.654 729.472 Q 674.518 730.96 675.982 731.8 L 675.982 731.8 L 675.982 731.8 Q 677.446 732.64 679.318 732.64 L 679.318 732.64 Z  M 678.982 718.864 L 678.982 718.864 Q 676.246 718.864 674.47 720.784 L 674.47 720.784 L 674.47 720.784 Q 672.694 722.704 672.694 725.68 L 672.694 725.68 L 672.694 725.68 Q 672.694 726.4 672.742 726.784 L 672.742 726.784 L 684.31 722.512 L 684.31 722.512 Q 683.59 720.88 682.27 719.872 L 682.27 719.872 L 682.27 719.872 Q 680.95 718.864 678.982 718.864 L 678.982 718.864 Z  M 699.286 720.832 L 699.286 720.832 Q 700.054 719.2 701.47 717.952 L 701.47 717.952 L 701.47 717.952 Q 702.886 716.704 704.47 716.032 L 704.47 716.032 L 704.47 716.032 Q 706.054 715.36 707.254 715.312 L 707.254 715.312 L 707.062 719.776 L 707.062 719.776 Q 704.902 719.68 703.15 720.64 L 703.15 720.64 L 703.15 720.64 Q 701.398 721.6 700.414 723.304 L 700.414 723.304 L 700.414 723.304 Q 699.43 725.008 699.43 726.928 L 699.43 726.928 L 699.43 736 L 694.966 736 L 694.966 716.128 L 698.95 716.128 L 699.286 720.832 Z  M 446.038 718.672 L 446.038 718.672 Q 446.038 713.92 448.438 709.84 L 448.438 709.84 L 448.438 709.84 Q 450.838 705.76 454.894 703.336 L 454.894 703.336 L 454.894 703.336 Q 458.95 700.912 463.75 700.912 L 463.75 700.912 L 463.75 700.912 Q 468.502 700.912 472.582 703.336 L 472.582 703.336 L 472.582 703.336 Q 476.662 705.76 479.086 709.84 L 479.086 709.84 L 479.086 709.84 Q 481.51 713.92 481.51 718.672 L 481.51 718.672 L 481.51 718.672 Q 481.51 723.472 479.11 727.552 L 479.11 727.552 L 479.11 727.552 Q 476.71 731.632 472.606 734.008 L 472.606 734.008 L 472.606 734.008 Q 468.502 736.384 463.75 736.384 L 463.75 736.384 L 463.75 736.384 Q 458.95 736.384 454.87 734.032 L 454.87 734.032 L 454.87 734.032 Q 450.79 731.68 448.414 727.624 L 448.414 727.624 L 448.414 727.624 Q 446.038 723.568 446.038 718.672 L 446.038 718.672 Z  M 450.838 718.72 L 450.838 718.72 Q 450.838 722.272 452.566 725.296 L 452.566 725.296 L 452.566 725.296 Q 454.294 728.32 457.294 730.096 L 457.294 730.096 L 457.294 730.096 Q 460.294 731.872 463.846 731.872 L 463.846 731.872 L 463.846 731.872 Q 467.398 731.872 470.35 730.12 L 470.35 730.12 L 470.35 730.12 Q 473.302 728.368 475.006 725.32 L 475.006 725.32 L 475.006 725.32 Q 476.71 722.272 476.71 718.672 L 476.71 718.672 L 476.71 718.672 Q 476.71 715.072 474.982 712 L 474.982 712 L 474.982 712 Q 473.254 708.928 470.278 707.152 L 470.278 707.152 L 470.278 707.152 Q 467.302 705.376 463.75 705.376 L 463.75 705.376 L 463.75 705.376 Q 460.198 705.376 457.222 707.176 L 457.222 707.176 L 457.222 707.176 Q 454.246 708.976 452.542 712.048 L 452.542 712.048 L 452.542 712.048 Q 450.838 715.12 450.838 718.72 L 450.838 718.72 Z  M 504.502 698.8 L 508.966 698.8 L 508.966 736 L 504.454 736 L 504.454 732.88 L 504.454 732.88 Q 503.014 734.56 500.926 735.52 L 500.926 735.52 L 500.926 735.52 Q 498.838 736.48 496.342 736.48 L 496.342 736.48 L 496.342 736.48 Q 493.558 736.48 491.302 735.136 L 491.302 735.136 L 491.302 735.136 Q 489.046 733.792 487.774 731.368 L 487.774 731.368 L 487.774 731.368 Q 486.502 728.944 486.502 725.776 L 486.502 725.776 L 486.502 725.776 Q 486.502 722.56 487.846 720.184 L 487.846 720.184 L 487.846 720.184 Q 489.19 717.808 491.542 716.56 L 491.542 716.56 L 491.542 716.56 Q 493.894 715.312 496.87 715.312 L 496.87 715.312 L 496.87 715.312 Q 499.126 715.312 501.214 716.248 L 501.214 716.248 L 501.214 716.248 Q 503.302 717.184 504.502 718.816 L 504.502 718.816 L 504.502 698.8 Z  M 497.734 732.64 L 497.734 732.64 Q 500.326 732.64 502.126 731.248 L 502.126 731.248 L 502.126 731.248 Q 503.926 729.856 504.454 727.504 L 504.454 727.504 L 504.454 723.76 L 504.454 723.76 Q 503.878 721.6 502.006 720.232 L 502.006 720.232 L 502.006 720.232 Q 500.134 718.864 497.734 718.864 L 497.734 718.864 L 497.734 718.864 Q 495.91 718.864 494.374 719.752 L 494.374 719.752 L 494.374 719.752 Q 492.838 720.64 491.926 722.2 L 491.926 722.2 L 491.926 722.2 Q 491.014 723.76 491.014 725.728 L 491.014 725.728 L 491.014 725.728 Q 491.014 727.648 491.926 729.232 L 491.926 729.232 L 491.926 729.232 Q 492.838 730.816 494.374 731.728 L 494.374 731.728 L 494.374 731.728 Q 495.91 732.64 497.734 732.64 L 497.734 732.64 Z  M 514.966 725.872 L 514.966 725.872 Q 514.966 722.944 516.382 720.52 L 516.382 720.52 L 516.382 720.52 Q 517.798 718.096 520.318 716.704 L 520.318 716.704 L 520.318 716.704 Q 522.838 715.312 526.006 715.312 L 526.006 715.312 L 526.006 715.312 Q 529.174 715.312 531.646 716.704 L 531.646 716.704 L 531.646 716.704 Q 534.118 718.096 535.486 720.496 L 535.486 720.496 L 535.486 720.496 Q 536.854 722.896 536.854 725.872 L 536.854 725.872 L 536.854 725.872 Q 536.854 728.848 535.486 731.272 L 535.486 731.272 L 535.486 731.272 Q 534.118 733.696 531.622 735.088 L 531.622 735.088 L 531.622 735.088 Q 529.126 736.48 525.91 736.48 L 525.91 736.48 L 525.91 736.48 Q 522.79 736.48 520.294 735.16 L 520.294 735.16 L 520.294 735.16 Q 517.798 733.84 516.382 731.44 L 516.382 731.44 L 516.382 731.44 Q 514.966 729.04 514.966 725.872 L 514.966 725.872 Z  M 519.478 725.92 L 519.478 725.92 Q 519.478 727.792 520.318 729.376 L 520.318 729.376 L 520.318 729.376 Q 521.158 730.96 522.622 731.872 L 522.622 731.872 L 522.622 731.872 Q 524.086 732.784 525.862 732.784 L 525.862 732.784 L 525.862 732.784 Q 528.646 732.784 530.47 730.816 L 530.47 730.816 L 530.47 730.816 Q 532.294 728.848 532.294 725.92 L 532.294 725.92 L 532.294 725.92 Q 532.294 722.992 530.47 721 L 530.47 721 L 530.47 721 Q 528.646 719.008 525.862 719.008 L 525.862 719.008 L 525.862 719.008 Q 524.038 719.008 522.598 719.944 L 522.598 719.944 L 522.598 719.944 Q 521.158 720.88 520.318 722.464 L 520.318 722.464 L 520.318 722.464 Q 519.478 724.048 519.478 725.92 L 519.478 725.92 Z  M 541.126 725.872 L 541.126 725.872 Q 541.126 722.944 542.542 720.52 L 542.542 720.52 L 542.542 720.52 Q 543.958 718.096 546.478 716.704 L 546.478 716.704 L 546.478 716.704 Q 548.998 715.312 552.166 715.312 L 552.166 715.312 L 552.166 715.312 Q 555.334 715.312 557.806 716.704 L 557.806 716.704 L 557.806 716.704 Q 560.278 718.096 561.646 720.496 L 561.646 720.496 L 561.646 720.496 Q 563.014 722.896 563.014 725.872 L 563.014 725.872 L 563.014 725.872 Q 563.014 728.848 561.646 731.272 L 561.646 731.272 L 561.646 731.272 Q 560.278 733.696 557.782 735.088 L 557.782 735.088 L 557.782 735.088 Q 555.286 736.48 552.07 736.48 L 552.07 736.48 L 552.07 736.48 Q 548.95 736.48 546.454 735.16 L 546.454 735.16 L 546.454 735.16 Q 543.958 733.84 542.542 731.44 L 542.542 731.44 L 542.542 731.44 Q 541.126 729.04 541.126 725.872 L 541.126 725.872 Z  M 545.638 725.92 L 545.638 725.92 Q 545.638 727.792 546.478 729.376 L 546.478 729.376 L 546.478 729.376 Q 547.318 730.96 548.782 731.872 L 548.782 731.872 L 548.782 731.872 Q 550.246 732.784 552.022 732.784 L 552.022 732.784 L 552.022 732.784 Q 554.806 732.784 556.63 730.816 L 556.63 730.816 L 556.63 730.816 Q 558.454 728.848 558.454 725.92 L 558.454 725.92 L 558.454 725.92 Q 558.454 722.992 556.63 721 L 556.63 721 L 556.63 721 Q 554.806 719.008 552.022 719.008 L 552.022 719.008 L 552.022 719.008 Q 550.198 719.008 548.758 719.944 L 548.758 719.944 L 548.758 719.944 Q 547.318 720.88 546.478 722.464 L 546.478 722.464 L 546.478 722.464 Q 545.638 724.048 545.638 725.92 L 545.638 725.92 Z  M 254.902 736.432 L 254.902 736.432 Q 252.694 736.432 250.702 735.664 L 250.702 735.664 L 250.702 735.664 Q 248.71 734.896 247.462 733.408 L 247.462 733.408 L 249.382 730.816 L 249.382 730.816 Q 250.582 731.968 251.902 732.592 L 251.902 732.592 L 251.902 732.592 Q 253.222 733.216 254.518 733.216 L 254.518 733.216 L 254.518 733.216 Q 256.102 733.216 257.11 732.592 L 257.11 732.592 L 257.11 732.592 Q 258.118 731.968 258.118 730.672 L 258.118 730.672 L 258.118 730.672 Q 258.118 729.664 257.494 729.04 L 257.494 729.04 L 257.494 729.04 Q 256.87 728.416 256.078 728.128 L 256.078 728.128 L 256.078 728.128 Q 255.286 727.84 253.414 727.264 L 253.414 727.264 L 253.414 727.264 Q 248.326 725.632 248.326 721.456 L 248.326 721.456 L 248.326 721.456 Q 248.326 718.96 250.174 717.184 L 250.174 717.184 L 250.174 717.184 Q 252.022 715.408 255.334 715.408 L 255.334 715.408 L 255.334 715.408 Q 257.446 715.408 259.078 715.936 L 259.078 715.936 L 259.078 715.936 Q 260.71 716.464 262.102 717.616 L 262.102 717.616 L 260.326 720.352 L 260.326 720.352 Q 259.558 719.536 258.382 719.056 L 258.382 719.056 L 258.382 719.056 Q 257.206 718.576 256.15 718.528 L 256.15 718.528 L 256.15 718.528 Q 254.806 718.528 253.846 719.176 L 253.846 719.176 L 253.846 719.176 Q 252.886 719.824 252.886 720.928 L 252.886 720.928 L 252.886 720.928 Q 252.886 721.84 253.51 722.44 L 253.51 722.44 L 253.51 722.44 Q 254.134 723.04 254.806 723.304 L 254.806 723.304 L 254.806 723.304 Q 255.478 723.568 257.446 724.192 L 257.446 724.192 L 257.446 724.192 Q 259.894 725.008 261.262 726.304 L 261.262 726.304 L 261.262 726.304 Q 262.63 727.6 262.63 729.808 L 262.63 729.808 L 262.63 729.808 Q 262.63 732.688 260.614 734.56 L 260.614 734.56 L 260.614 734.56 Q 258.598 736.432 254.902 736.432 L 254.902 736.432 Z  M 282.886 716.128 L 287.35 716.128 L 287.35 736 L 283.318 736 L 283.03 732.208 L 283.03 732.208 Q 282.022 734.224 279.91 735.496 L 279.91 735.496 L 279.91 735.496 Q 277.798 736.768 275.206 736.768 L 275.206 736.768 L 275.206 736.768 Q 272.47 736.768 270.718 735.112 L 270.718 735.112 L 270.718 735.112 Q 268.966 733.456 268.87 730.816 L 268.87 730.816 L 268.87 716.128 L 273.334 716.128 L 273.334 729.232 L 273.334 729.232 Q 273.43 730.912 274.318 731.896 L 274.318 731.896 L 274.318 731.896 Q 275.206 732.88 276.982 732.928 L 276.982 732.928 L 276.982 732.928 Q 278.614 732.928 279.958 731.944 L 279.958 731.944 L 279.958 731.944 Q 281.302 730.96 282.094 729.232 L 282.094 729.232 L 282.094 729.232 Q 282.886 727.504 282.886 725.392 L 282.886 725.392 L 282.886 716.128 Z  M 311.254 734.128 L 311.254 734.128 Q 309.91 735.232 308.062 735.856 L 308.062 735.856 L 308.062 735.856 Q 306.214 736.48 304.294 736.48 L 304.294 736.48 L 304.294 736.48 Q 301.078 736.48 298.606 735.184 L 298.606 735.184 L 298.606 735.184 Q 296.134 733.888 294.766 731.512 L 294.766 731.512 L 294.766 731.512 Q 293.398 729.136 293.398 726.016 L 293.398 726.016 L 293.398 726.016 Q 293.398 722.944 294.838 720.568 L 294.838 720.568 L 294.838 720.568 Q 296.278 718.192 298.678 716.896 L 298.678 716.896 L 298.678 716.896 Q 301.078 715.6 303.862 715.6 L 303.862 715.6 L 303.862 715.6 Q 308.422 715.6 311.398 718.096 L 311.398 718.096 L 309.142 721.024 L 309.142 721.024 Q 308.182 720.304 306.934 719.8 L 306.934 719.8 L 306.934 719.8 Q 305.686 719.296 304.246 719.296 L 304.246 719.296 L 304.246 719.296 Q 302.47 719.296 301.006 720.184 L 301.006 720.184 L 301.006 720.184 Q 299.542 721.072 298.702 722.608 L 298.702 722.608 L 298.702 722.608 Q 297.862 724.144 297.862 726.016 L 297.862 726.016 L 297.862 726.016 Q 297.862 727.888 298.75 729.424 L 298.75 729.424 L 298.75 729.424 Q 299.638 730.96 301.174 731.872 L 301.174 731.872 L 301.174 731.872 Q 302.71 732.784 304.678 732.784 L 304.678 732.784 L 304.678 732.784 Q 307.126 732.784 308.95 731.344 L 308.95 731.344 L 311.254 734.128 Z  M 330.214 736 L 324.07 726.448 L 321.478 728.56 L 321.478 736 L 317.014 736 L 317.014 698.8 L 321.478 698.8 L 321.478 723.904 L 331.75 715.648 L 334.486 718.048 L 327.142 723.952 L 335.446 736 L 330.214 736 Z  M 339.67 723.712 L 348.598 723.712 L 348.598 727.648 L 339.67 727.648 L 339.67 723.712 Z  M 355.558 698.8 L 360.022 698.8 L 360.022 736 L 355.558 736 L 355.558 698.8 Z  M 377.11 732.64 L 377.11 732.64 Q 379.606 732.64 381.958 730.912 L 381.958 730.912 L 384.022 734.224 L 384.022 734.224 Q 382.438 735.28 380.59 735.88 L 380.59 735.88 L 380.59 735.88 Q 378.742 736.48 377.014 736.48 L 377.014 736.48 L 377.014 736.48 Q 373.702 736.48 371.23 735.112 L 371.23 735.112 L 371.23 735.112 Q 368.758 733.744 367.414 731.344 L 367.414 731.344 L 367.414 731.344 Q 366.07 728.944 366.07 725.92 L 366.07 725.92 L 366.07 725.92 Q 366.07 722.992 367.534 720.568 L 367.534 720.568 L 367.534 720.568 Q 368.998 718.144 371.542 716.728 L 371.542 716.728 L 371.542 716.728 Q 374.086 715.312 377.11 715.312 L 377.11 715.312 L 377.11 715.312 Q 380.998 715.312 383.614 717.592 L 383.614 717.592 L 383.614 717.592 Q 386.23 719.872 387.19 723.952 L 387.19 723.952 L 371.446 729.472 L 371.446 729.472 Q 372.31 730.96 373.774 731.8 L 373.774 731.8 L 373.774 731.8 Q 375.238 732.64 377.11 732.64 L 377.11 732.64 Z  M 376.774 718.864 L 376.774 718.864 Q 374.038 718.864 372.262 720.784 L 372.262 720.784 L 372.262 720.784 Q 370.486 722.704 370.486 725.68 L 370.486 725.68 L 370.486 725.68 Q 370.486 726.4 370.534 726.784 L 370.534 726.784 L 382.102 722.512 L 382.102 722.512 Q 381.382 720.88 380.062 719.872 L 380.062 719.872 L 380.062 719.872 Q 378.742 718.864 376.774 718.864 L 376.774 718.864 Z  M 398.374 736.432 L 398.374 736.432 Q 396.166 736.432 394.174 735.664 L 394.174 735.664 L 394.174 735.664 Q 392.182 734.896 390.934 733.408 L 390.934 733.408 L 392.854 730.816 L 392.854 730.816 Q 394.054 731.968 395.374 732.592 L 395.374 732.592 L 395.374 732.592 Q 396.694 733.216 397.99 733.216 L 397.99 733.216 L 397.99 733.216 Q 399.574 733.216 400.582 732.592 L 400.582 732.592 L 400.582 732.592 Q 401.59 731.968 401.59 730.672 L 401.59 730.672 L 401.59 730.672 Q 401.59 729.664 400.966 729.04 L 400.966 729.04 L 400.966 729.04 Q 400.342 728.416 399.55 728.128 L 399.55 728.128 L 399.55 728.128 Q 398.758 727.84 396.886 727.264 L 396.886 727.264 L 396.886 727.264 Q 391.798 725.632 391.798 721.456 L 391.798 721.456 L 391.798 721.456 Q 391.798 718.96 393.646 717.184 L 393.646 717.184 L 393.646 717.184 Q 395.494 715.408 398.806 715.408 L 398.806 715.408 L 398.806 715.408 Q 400.918 715.408 402.55 715.936 L 402.55 715.936 L 402.55 715.936 Q 404.182 716.464 405.574 717.616 L 405.574 717.616 L 403.798 720.352 L 403.798 720.352 Q 403.03 719.536 401.854 719.056 L 401.854 719.056 L 401.854 719.056 Q 400.678 718.576 399.622 718.528 L 399.622 718.528 L 399.622 718.528 Q 398.278 718.528 397.318 719.176 L 397.318 719.176 L 397.318 719.176 Q 396.358 719.824 396.358 720.928 L 396.358 720.928 L 396.358 720.928 Q 396.358 721.84 396.982 722.44 L 396.982 722.44 L 396.982 722.44 Q 397.606 723.04 398.278 723.304 L 398.278 723.304 L 398.278 723.304 Q 398.95 723.568 400.918 724.192 L 400.918 724.192 L 400.918 724.192 Q 403.366 725.008 404.734 726.304 L 404.734 726.304 L 404.734 726.304 Q 406.102 727.6 406.102 729.808 L 406.102 729.808 L 406.102 729.808 Q 406.102 732.688 404.086 734.56 L 404.086 734.56 L 404.086 734.56 Q 402.07 736.432 398.374 736.432 L 398.374 736.432 Z  M 417.958 736.432 L 417.958 736.432 Q 415.75 736.432 413.758 735.664 L 413.758 735.664 L 413.758 735.664 Q 411.766 734.896 410.518 733.408 L 410.518 733.408 L 412.438 730.816 L 412.438 730.816 Q 413.638 731.968 414.958 732.592 L 414.958 732.592 L 414.958 732.592 Q 416.278 733.216 417.574 733.216 L 417.574 733.216 L 417.574 733.216 Q 419.158 733.216 420.166 732.592 L 420.166 732.592 L 420.166 732.592 Q 421.174 731.968 421.174 730.672 L 421.174 730.672 L 421.174 730.672 Q 421.174 729.664 420.55 729.04 L 420.55 729.04 L 420.55 729.04 Q 419.926 728.416 419.134 728.128 L 419.134 728.128 L 419.134 728.128 Q 418.342 727.84 416.47 727.264 L 416.47 727.264 L 416.47 727.264 Q 411.382 725.632 411.382 721.456 L 411.382 721.456 L 411.382 721.456 Q 411.382 718.96 413.23 717.184 L 413.23 717.184 L 413.23 717.184 Q 415.078 715.408 418.39 715.408 L 418.39 715.408 L 418.39 715.408 Q 420.502 715.408 422.134 715.936 L 422.134 715.936 L 422.134 715.936 Q 423.766 716.464 425.158 717.616 L 425.158 717.616 L 423.382 720.352 L 423.382 720.352 Q 422.614 719.536 421.438 719.056 L 421.438 719.056 L 421.438 719.056 Q 420.262 718.576 419.206 718.528 L 419.206 718.528 L 419.206 718.528 Q 417.862 718.528 416.902 719.176 L 416.902 719.176 L 416.902 719.176 Q 415.942 719.824 415.942 720.928 L 415.942 720.928 L 415.942 720.928 Q 415.942 721.84 416.566 722.44 L 416.566 722.44 L 416.566 722.44 Q 417.19 723.04 417.862 723.304 L 417.862 723.304 L 417.862 723.304 Q 418.534 723.568 420.502 724.192 L 420.502 724.192 L 420.502 724.192 Q 422.95 725.008 424.318 726.304 L 424.318 726.304 L 424.318 726.304 Q 425.686 727.6 425.686 729.808 L 425.686 729.808 L 425.686 729.808 Q 425.686 732.688 423.67 734.56 L 423.67 734.56 L 423.67 734.56 Q 421.654 736.432 417.958 736.432 L 417.958 736.432 Z  M 223.366 736 L 219.766 726.88 L 206.422 726.88 L 202.726 736 L 198.118 736 L 213.286 699.856 L 213.574 699.856 L 228.742 736 L 223.366 736 Z  M 208.102 722.848 L 218.182 722.848 L 213.238 710.176 L 208.102 722.848 Z " fill="rgb(73,67,104)"/><path d=" M 616.223 839.75 L 616.223 832.799 L 614.732 832.799 L 614.732 831.035 L 616.223 831.035 L 616.223 827.381 L 616.223 827.381 Q 616.223 825.491 617.084 824.483 L 617.084 824.483 L 617.084 824.483 Q 617.945 823.475 619.604 823.475 L 619.604 823.475 L 619.604 823.475 Q 620.066 823.475 620.591 823.612 L 620.591 823.612 L 620.591 823.612 Q 621.116 823.748 621.515 824 L 621.515 824 L 620.675 825.428 L 620.675 825.428 Q 620.36 825.092 619.793 825.092 L 619.793 825.092 L 619.793 825.092 Q 618.995 825.092 618.586 825.638 L 618.586 825.638 L 618.586 825.638 Q 618.176 826.184 618.176 827.402 L 618.176 827.402 L 618.176 831.035 L 620.948 831.035 L 620.948 832.799 L 618.176 832.799 L 618.176 839.75 L 616.223 839.75 Z  M 625.379 833.114 L 625.379 833.114 Q 625.715 832.4 626.335 831.854 L 626.335 831.854 L 626.335 831.854 Q 626.954 831.308 627.647 831.014 L 627.647 831.014 L 627.647 831.014 Q 628.34 830.72 628.865 830.699 L 628.865 830.699 L 628.781 832.652 L 628.781 832.652 Q 627.836 832.61 627.07 833.03 L 627.07 833.03 L 627.07 833.03 Q 626.303 833.45 625.873 834.196 L 625.873 834.196 L 625.873 834.196 Q 625.442 834.941 625.442 835.781 L 625.442 835.781 L 625.442 839.75 L 623.489 839.75 L 623.489 831.056 L 625.232 831.056 L 625.379 833.114 Z  M 635.081 838.28 L 635.081 838.28 Q 636.173 838.28 637.202 837.524 L 637.202 837.524 L 638.105 838.973 L 638.105 838.973 Q 637.412 839.435 636.604 839.698 L 636.604 839.698 L 636.604 839.698 Q 635.795 839.96 635.039 839.96 L 635.039 839.96 L 635.039 839.96 Q 633.59 839.96 632.509 839.362 L 632.509 839.362 L 632.509 839.362 Q 631.427 838.763 630.839 837.713 L 630.839 837.713 L 630.839 837.713 Q 630.251 836.663 630.251 835.34 L 630.251 835.34 L 630.251 835.34 Q 630.251 834.059 630.892 832.999 L 630.892 832.999 L 630.892 832.999 Q 631.532 831.938 632.645 831.319 L 632.645 831.319 L 632.645 831.319 Q 633.758 830.699 635.081 830.699 L 635.081 830.699 L 635.081 830.699 Q 636.782 830.699 637.927 831.697 L 637.927 831.697 L 637.927 831.697 Q 639.071 832.694 639.491 834.479 L 639.491 834.479 L 632.603 836.894 L 632.603 836.894 Q 632.981 837.545 633.622 837.913 L 633.622 837.913 L 633.622 837.913 Q 634.262 838.28 635.081 838.28 L 635.081 838.28 Z  M 634.934 832.253 L 634.934 832.253 Q 633.737 832.253 632.96 833.093 L 632.96 833.093 L 632.96 833.093 Q 632.183 833.933 632.183 835.235 L 632.183 835.235 L 632.183 835.235 Q 632.183 835.55 632.204 835.718 L 632.204 835.718 L 637.265 833.849 L 637.265 833.849 Q 636.95 833.135 636.373 832.694 L 636.373 832.694 L 636.373 832.694 Q 635.795 832.253 634.934 832.253 L 634.934 832.253 Z  M 646.001 838.28 L 646.001 838.28 Q 647.093 838.28 648.122 837.524 L 648.122 837.524 L 649.025 838.973 L 649.025 838.973 Q 648.332 839.435 647.524 839.698 L 647.524 839.698 L 647.524 839.698 Q 646.715 839.96 645.959 839.96 L 645.959 839.96 L 645.959 839.96 Q 644.51 839.96 643.429 839.362 L 643.429 839.362 L 643.429 839.362 Q 642.347 838.763 641.759 837.713 L 641.759 837.713 L 641.759 837.713 Q 641.171 836.663 641.171 835.34 L 641.171 835.34 L 641.171 835.34 Q 641.171 834.059 641.812 832.999 L 641.812 832.999 L 641.812 832.999 Q 642.452 831.938 643.565 831.319 L 643.565 831.319 L 643.565 831.319 Q 644.678 830.699 646.001 830.699 L 646.001 830.699 L 646.001 830.699 Q 647.702 830.699 648.847 831.697 L 648.847 831.697 L 648.847 831.697 Q 649.991 832.694 650.411 834.479 L 650.411 834.479 L 643.523 836.894 L 643.523 836.894 Q 643.901 837.545 644.542 837.913 L 644.542 837.913 L 644.542 837.913 Q 645.182 838.28 646.001 838.28 L 646.001 838.28 Z  M 645.854 832.253 L 645.854 832.253 Q 644.657 832.253 643.88 833.093 L 643.88 833.093 L 643.88 833.093 Q 643.103 833.933 643.103 835.235 L 643.103 835.235 L 643.103 835.235 Q 643.103 835.55 643.124 835.718 L 643.124 835.718 L 648.185 833.849 L 648.185 833.849 Q 647.87 833.135 647.293 832.694 L 647.293 832.694 L 647.293 832.694 Q 646.715 832.253 645.854 832.253 L 645.854 832.253 Z  M 659.966 823.475 L 661.919 823.475 L 661.919 839.75 L 659.945 839.75 L 659.945 838.385 L 659.945 838.385 Q 659.315 839.12 658.402 839.54 L 658.402 839.54 L 658.402 839.54 Q 657.488 839.96 656.396 839.96 L 656.396 839.96 L 656.396 839.96 Q 655.178 839.96 654.191 839.372 L 654.191 839.372 L 654.191 839.372 Q 653.204 838.784 652.648 837.724 L 652.648 837.724 L 652.648 837.724 Q 652.091 836.663 652.091 835.277 L 652.091 835.277 L 652.091 835.277 Q 652.091 833.87 652.679 832.831 L 652.679 832.831 L 652.679 832.831 Q 653.267 831.791 654.296 831.245 L 654.296 831.245 L 654.296 831.245 Q 655.325 830.699 656.627 830.699 L 656.627 830.699 L 656.627 830.699 Q 657.614 830.699 658.528 831.109 L 658.528 831.109 L 658.528 831.109 Q 659.441 831.518 659.966 832.232 L 659.966 832.232 L 659.966 823.475 Z  M 657.005 838.28 L 657.005 838.28 Q 658.139 838.28 658.927 837.671 L 658.927 837.671 L 658.927 837.671 Q 659.714 837.062 659.945 836.033 L 659.945 836.033 L 659.945 834.395 L 659.945 834.395 Q 659.693 833.45 658.874 832.852 L 658.874 832.852 L 658.874 832.852 Q 658.055 832.253 657.005 832.253 L 657.005 832.253 L 657.005 832.253 Q 656.207 832.253 655.535 832.642 L 655.535 832.642 L 655.535 832.642 Q 654.863 833.03 654.464 833.713 L 654.464 833.713 L 654.464 833.713 Q 654.065 834.395 654.065 835.256 L 654.065 835.256 L 654.065 835.256 Q 654.065 836.096 654.464 836.789 L 654.464 836.789 L 654.464 836.789 Q 654.863 837.482 655.535 837.881 L 655.535 837.881 L 655.535 837.881 Q 656.207 838.28 657.005 838.28 L 657.005 838.28 Z  M 664.544 835.319 L 664.544 835.319 Q 664.544 834.038 665.164 832.978 L 665.164 832.978 L 665.164 832.978 Q 665.783 831.917 666.886 831.308 L 666.886 831.308 L 666.886 831.308 Q 667.988 830.699 669.374 830.699 L 669.374 830.699 L 669.374 830.699 Q 670.76 830.699 671.842 831.308 L 671.842 831.308 L 671.842 831.308 Q 672.923 831.917 673.522 832.967 L 673.522 832.967 L 673.522 832.967 Q 674.12 834.017 674.12 835.319 L 674.12 835.319 L 674.12 835.319 Q 674.12 836.621 673.522 837.682 L 673.522 837.682 L 673.522 837.682 Q 672.923 838.742 671.831 839.351 L 671.831 839.351 L 671.831 839.351 Q 670.739 839.96 669.332 839.96 L 669.332 839.96 L 669.332 839.96 Q 667.967 839.96 666.875 839.383 L 666.875 839.383 L 666.875 839.383 Q 665.783 838.805 665.164 837.755 L 665.164 837.755 L 665.164 837.755 Q 664.544 836.705 664.544 835.319 L 664.544 835.319 Z  M 666.518 835.34 L 666.518 835.34 Q 666.518 836.159 666.886 836.852 L 666.886 836.852 L 666.886 836.852 Q 667.253 837.545 667.894 837.944 L 667.894 837.944 L 667.894 837.944 Q 668.534 838.343 669.311 838.343 L 669.311 838.343 L 669.311 838.343 Q 670.529 838.343 671.327 837.482 L 671.327 837.482 L 671.327 837.482 Q 672.125 836.621 672.125 835.34 L 672.125 835.34 L 672.125 835.34 Q 672.125 834.059 671.327 833.188 L 671.327 833.188 L 671.327 833.188 Q 670.529 832.316 669.311 832.316 L 669.311 832.316 L 669.311 832.316 Q 668.513 832.316 667.883 832.726 L 667.883 832.726 L 667.883 832.726 Q 667.253 833.135 666.886 833.828 L 666.886 833.828 L 666.886 833.828 Q 666.518 834.521 666.518 835.34 L 666.518 835.34 Z  M 687.896 830.699 L 687.896 830.699 Q 689.156 830.699 689.902 831.413 L 689.902 831.413 L 689.902 831.413 Q 690.647 832.127 690.689 833.303 L 690.689 833.303 L 690.689 839.75 L 688.736 839.75 L 688.736 834.017 L 688.736 834.017 Q 688.673 832.484 687.35 832.4 L 687.35 832.4 L 687.35 832.4 Q 686.594 832.4 685.996 832.852 L 685.996 832.852 L 685.996 832.852 Q 685.397 833.303 685.061 834.038 L 685.061 834.038 L 685.061 834.038 Q 684.725 834.773 684.704 835.613 L 684.704 835.613 L 684.704 839.75 L 682.73 839.75 L 682.73 834.017 L 682.73 834.017 Q 682.667 832.484 681.302 832.4 L 681.302 832.4 L 681.302 832.4 Q 680.567 832.4 679.969 832.852 L 679.969 832.852 L 679.969 832.852 Q 679.37 833.303 679.034 834.049 L 679.034 834.049 L 679.034 834.049 Q 678.698 834.794 678.698 835.634 L 678.698 835.634 L 678.698 839.75 L 676.745 839.75 L 676.745 831.056 L 678.509 831.056 L 678.656 832.694 L 678.656 832.694 Q 679.16 831.749 680.032 831.224 L 680.032 831.224 L 680.032 831.224 Q 680.903 830.699 682.016 830.699 L 682.016 830.699 L 682.016 830.699 Q 683.066 830.699 683.78 831.193 L 683.78 831.193 L 683.78 831.193 Q 684.494 831.686 684.704 832.547 L 684.704 832.547 L 684.704 832.547 Q 685.25 831.686 686.09 831.193 L 686.09 831.193 L 686.09 831.193 Q 686.93 830.699 687.896 830.699 L 687.896 830.699 Z  M 693.083 838.637 L 693.083 838.637 Q 693.083 838.175 693.419 837.839 L 693.419 837.839 L 693.419 837.839 Q 693.755 837.503 694.196 837.503 L 694.196 837.503 L 694.196 837.503 Q 694.595 837.503 694.942 837.839 L 694.942 837.839 L 694.942 837.839 Q 695.288 838.175 695.288 838.637 L 695.288 838.637 L 695.288 838.637 Q 695.288 839.12 694.952 839.435 L 694.952 839.435 L 694.952 839.435 Q 694.616 839.75 694.196 839.75 L 694.196 839.75 L 694.196 839.75 Q 693.755 839.75 693.419 839.435 L 693.419 839.435 L 693.419 839.435 Q 693.083 839.12 693.083 838.637 L 693.083 838.637 Z  M 542.387 833.114 L 542.387 833.114 Q 542.723 832.4 543.343 831.854 L 543.343 831.854 L 543.343 831.854 Q 543.962 831.308 544.655 831.014 L 544.655 831.014 L 544.655 831.014 Q 545.348 830.72 545.873 830.699 L 545.873 830.699 L 545.789 832.652 L 545.789 832.652 Q 544.844 832.61 544.078 833.03 L 544.078 833.03 L 544.078 833.03 Q 543.311 833.45 542.881 834.196 L 542.881 834.196 L 542.881 834.196 Q 542.45 834.941 542.45 835.781 L 542.45 835.781 L 542.45 839.75 L 540.497 839.75 L 540.497 831.056 L 542.24 831.056 L 542.387 833.114 Z  M 552.089 838.28 L 552.089 838.28 Q 553.181 838.28 554.21 837.524 L 554.21 837.524 L 555.113 838.973 L 555.113 838.973 Q 554.42 839.435 553.612 839.698 L 553.612 839.698 L 553.612 839.698 Q 552.803 839.96 552.047 839.96 L 552.047 839.96 L 552.047 839.96 Q 550.598 839.96 549.517 839.362 L 549.517 839.362 L 549.517 839.362 Q 548.435 838.763 547.847 837.713 L 547.847 837.713 L 547.847 837.713 Q 547.259 836.663 547.259 835.34 L 547.259 835.34 L 547.259 835.34 Q 547.259 834.059 547.9 832.999 L 547.9 832.999 L 547.9 832.999 Q 548.54 831.938 549.653 831.319 L 549.653 831.319 L 549.653 831.319 Q 550.766 830.699 552.089 830.699 L 552.089 830.699 L 552.089 830.699 Q 553.79 830.699 554.935 831.697 L 554.935 831.697 L 554.935 831.697 Q 556.079 832.694 556.499 834.479 L 556.499 834.479 L 549.611 836.894 L 549.611 836.894 Q 549.989 837.545 550.63 837.913 L 550.63 837.913 L 550.63 837.913 Q 551.27 838.28 552.089 838.28 L 552.089 838.28 Z  M 551.942 832.253 L 551.942 832.253 Q 550.745 832.253 549.968 833.093 L 549.968 833.093 L 549.968 833.093 Q 549.191 833.933 549.191 835.235 L 549.191 835.235 L 549.191 835.235 Q 549.191 835.55 549.212 835.718 L 549.212 835.718 L 554.273 833.849 L 554.273 833.849 Q 553.958 833.135 553.381 832.694 L 553.381 832.694 L 553.381 832.694 Q 552.803 832.253 551.942 832.253 L 551.942 832.253 Z  M 565.991 838.931 L 565.991 838.931 Q 565.403 839.414 564.595 839.687 L 564.595 839.687 L 564.595 839.687 Q 563.786 839.96 562.946 839.96 L 562.946 839.96 L 562.946 839.96 Q 561.539 839.96 560.458 839.393 L 560.458 839.393 L 560.458 839.393 Q 559.376 838.826 558.778 837.787 L 558.778 837.787 L 558.778 837.787 Q 558.179 836.747 558.179 835.382 L 558.179 835.382 L 558.179 835.382 Q 558.179 834.038 558.809 832.999 L 558.809 832.999 L 558.809 832.999 Q 559.439 831.959 560.489 831.392 L 560.489 831.392 L 560.489 831.392 Q 561.539 830.825 562.757 830.825 L 562.757 830.825 L 562.757 830.825 Q 564.752 830.825 566.054 831.917 L 566.054 831.917 L 565.067 833.198 L 565.067 833.198 Q 564.647 832.883 564.101 832.663 L 564.101 832.663 L 564.101 832.663 Q 563.555 832.442 562.925 832.442 L 562.925 832.442 L 562.925 832.442 Q 562.148 832.442 561.508 832.831 L 561.508 832.831 L 561.508 832.831 Q 560.867 833.219 560.5 833.891 L 560.5 833.891 L 560.5 833.891 Q 560.132 834.563 560.132 835.382 L 560.132 835.382 L 560.132 835.382 Q 560.132 836.201 560.521 836.873 L 560.521 836.873 L 560.521 836.873 Q 560.909 837.545 561.581 837.944 L 561.581 837.944 L 561.581 837.944 Q 562.253 838.343 563.114 838.343 L 563.114 838.343 L 563.114 838.343 Q 564.185 838.343 564.983 837.713 L 564.983 837.713 L 565.991 838.931 Z  M 568.511 823.475 L 570.464 823.475 L 570.464 839.75 L 568.511 839.75 L 568.511 823.475 Z  M 580.985 831.056 L 582.791 831.056 L 582.791 839.75 L 580.838 839.75 L 580.838 838.322 L 580.838 838.322 Q 580.376 838.931 579.494 839.446 L 579.494 839.446 L 579.494 839.446 Q 578.612 839.96 577.499 839.96 L 577.499 839.96 L 577.499 839.96 Q 576.26 839.96 575.263 839.425 L 575.263 839.425 L 575.263 839.425 Q 574.265 838.889 573.688 837.86 L 573.688 837.86 L 573.688 837.86 Q 573.11 836.831 573.11 835.403 L 573.11 835.403 L 573.11 835.403 Q 573.11 833.975 573.709 832.915 L 573.709 832.915 L 573.709 832.915 Q 574.307 831.854 575.326 831.277 L 575.326 831.277 L 575.326 831.277 Q 576.344 830.699 577.583 830.699 L 577.583 830.699 L 577.583 830.699 Q 578.696 830.699 579.515 831.182 L 579.515 831.182 L 579.515 831.182 Q 580.334 831.665 580.838 832.442 L 580.838 832.442 L 580.985 831.056 Z  M 578.024 838.343 L 578.024 838.343 Q 579.095 838.343 579.862 837.745 L 579.862 837.745 L 579.862 837.745 Q 580.628 837.146 580.838 836.117 L 580.838 836.117 L 580.838 834.395 L 580.838 834.395 Q 580.586 833.471 579.788 832.894 L 579.788 832.894 L 579.788 832.894 Q 578.99 832.316 577.961 832.316 L 577.961 832.316 L 577.961 832.316 Q 577.184 832.316 576.523 832.694 L 576.523 832.694 L 576.523 832.694 Q 575.861 833.072 575.473 833.755 L 575.473 833.755 L 575.473 833.755 Q 575.084 834.437 575.084 835.298 L 575.084 835.298 L 575.084 835.298 Q 575.084 836.138 575.483 836.831 L 575.483 836.831 L 575.483 836.831 Q 575.882 837.524 576.554 837.934 L 576.554 837.934 L 576.554 837.934 Q 577.226 838.343 578.024 838.343 L 578.024 838.343 Z  M 586.193 831.056 L 588.146 831.056 L 588.146 839.75 L 586.193 839.75 L 586.193 831.056 Z  M 586.046 827.927 L 586.046 827.927 Q 586.046 827.465 586.403 827.15 L 586.403 827.15 L 586.403 827.15 Q 586.76 826.835 587.222 826.835 L 587.222 826.835 L 587.222 826.835 Q 587.684 826.835 588.031 827.15 L 588.031 827.15 L 588.031 827.15 Q 588.377 827.465 588.377 827.927 L 588.377 827.927 L 588.377 827.927 Q 588.377 828.389 588.031 828.704 L 588.031 828.704 L 588.031 828.704 Q 587.684 829.019 587.222 829.019 L 587.222 829.019 L 587.222 829.019 Q 586.76 829.019 586.403 828.704 L 586.403 828.704 L 586.403 828.704 Q 586.046 828.389 586.046 827.927 L 586.046 827.927 Z  M 602.699 830.699 L 602.699 830.699 Q 603.959 830.699 604.705 831.413 L 604.705 831.413 L 604.705 831.413 Q 605.45 832.127 605.492 833.303 L 605.492 833.303 L 605.492 839.75 L 603.539 839.75 L 603.539 834.017 L 603.539 834.017 Q 603.476 832.484 602.153 832.4 L 602.153 832.4 L 602.153 832.4 Q 601.397 832.4 600.799 832.852 L 600.799 832.852 L 600.799 832.852 Q 600.2 833.303 599.864 834.038 L 599.864 834.038 L 599.864 834.038 Q 599.528 834.773 599.507 835.613 L 599.507 835.613 L 599.507 839.75 L 597.533 839.75 L 597.533 834.017 L 597.533 834.017 Q 597.47 832.484 596.105 832.4 L 596.105 832.4 L 596.105 832.4 Q 595.37 832.4 594.772 832.852 L 594.772 832.852 L 594.772 832.852 Q 594.173 833.303 593.837 834.049 L 593.837 834.049 L 593.837 834.049 Q 593.501 834.794 593.501 835.634 L 593.501 835.634 L 593.501 839.75 L 591.548 839.75 L 591.548 831.056 L 593.312 831.056 L 593.459 832.694 L 593.459 832.694 Q 593.963 831.749 594.835 831.224 L 594.835 831.224 L 594.835 831.224 Q 595.706 830.699 596.819 830.699 L 596.819 830.699 L 596.819 830.699 Q 597.869 830.699 598.583 831.193 L 598.583 831.193 L 598.583 831.193 Q 599.297 831.686 599.507 832.547 L 599.507 832.547 L 599.507 832.547 Q 600.053 831.686 600.893 831.193 L 600.893 831.193 L 600.893 831.193 Q 601.733 830.699 602.699 830.699 L 602.699 830.699 Z  M 497.993 823.475 L 499.946 823.475 L 499.946 839.75 L 497.993 839.75 L 497.993 823.475 Z  M 507.422 838.28 L 507.422 838.28 Q 508.514 838.28 509.543 837.524 L 509.543 837.524 L 510.446 838.973 L 510.446 838.973 Q 509.753 839.435 508.945 839.698 L 508.945 839.698 L 508.945 839.698 Q 508.136 839.96 507.38 839.96 L 507.38 839.96 L 507.38 839.96 Q 505.931 839.96 504.85 839.362 L 504.85 839.362 L 504.85 839.362 Q 503.768 838.763 503.18 837.713 L 503.18 837.713 L 503.18 837.713 Q 502.592 836.663 502.592 835.34 L 502.592 835.34 L 502.592 835.34 Q 502.592 834.059 503.233 832.999 L 503.233 832.999 L 503.233 832.999 Q 503.873 831.938 504.986 831.319 L 504.986 831.319 L 504.986 831.319 Q 506.099 830.699 507.422 830.699 L 507.422 830.699 L 507.422 830.699 Q 509.123 830.699 510.268 831.697 L 510.268 831.697 L 510.268 831.697 Q 511.412 832.694 511.832 834.479 L 511.832 834.479 L 504.944 836.894 L 504.944 836.894 Q 505.322 837.545 505.963 837.913 L 505.963 837.913 L 505.963 837.913 Q 506.603 838.28 507.422 838.28 L 507.422 838.28 Z  M 507.275 832.253 L 507.275 832.253 Q 506.078 832.253 505.301 833.093 L 505.301 833.093 L 505.301 833.093 Q 504.524 833.933 504.524 835.235 L 504.524 835.235 L 504.524 835.235 Q 504.524 835.55 504.545 835.718 L 504.545 835.718 L 509.606 833.849 L 509.606 833.849 Q 509.291 833.135 508.714 832.694 L 508.714 832.694 L 508.714 832.694 Q 508.136 832.253 507.275 832.253 L 507.275 832.253 Z  M 515.108 827.234 L 517.082 827.234 L 517.082 831.077 L 519.455 831.077 L 519.455 832.631 L 517.082 832.631 L 517.082 839.75 L 515.108 839.75 L 515.108 832.631 L 513.512 832.631 L 513.512 831.077 L 515.108 831.077 L 515.108 827.234 Z  M 522.815 824.441 L 522.731 829.712 L 521.03 829.712 L 521.03 824.441 L 522.815 824.441 Z  M 527.75 839.939 L 527.75 839.939 Q 526.784 839.939 525.913 839.603 L 525.913 839.603 L 525.913 839.603 Q 525.041 839.267 524.495 838.616 L 524.495 838.616 L 525.335 837.482 L 525.335 837.482 Q 525.86 837.986 526.438 838.259 L 526.438 838.259 L 526.438 838.259 Q 527.015 838.532 527.582 838.532 L 527.582 838.532 L 527.582 838.532 Q 528.275 838.532 528.716 838.259 L 528.716 838.259 L 528.716 838.259 Q 529.157 837.986 529.157 837.419 L 529.157 837.419 L 529.157 837.419 Q 529.157 836.978 528.884 836.705 L 528.884 836.705 L 528.884 836.705 Q 528.611 836.432 528.265 836.306 L 528.265 836.306 L 528.265 836.306 Q 527.918 836.18 527.099 835.928 L 527.099 835.928 L 527.099 835.928 Q 524.873 835.214 524.873 833.387 L 524.873 833.387 L 524.873 833.387 Q 524.873 832.295 525.682 831.518 L 525.682 831.518 L 525.682 831.518 Q 526.49 830.741 527.939 830.741 L 527.939 830.741 L 527.939 830.741 Q 528.863 830.741 529.577 830.972 L 529.577 830.972 L 529.577 830.972 Q 530.291 831.203 530.9 831.707 L 530.9 831.707 L 530.123 832.904 L 530.123 832.904 Q 529.787 832.547 529.273 832.337 L 529.273 832.337 L 529.273 832.337 Q 528.758 832.127 528.296 832.106 L 528.296 832.106 L 528.296 832.106 Q 527.708 832.106 527.288 832.39 L 527.288 832.39 L 527.288 832.39 Q 526.868 832.673 526.868 833.156 L 526.868 833.156 L 526.868 833.156 Q 526.868 833.555 527.141 833.818 L 527.141 833.818 L 527.141 833.818 Q 527.414 834.08 527.708 834.196 L 527.708 834.196 L 527.708 834.196 Q 528.002 834.311 528.863 834.584 L 528.863 834.584 L 528.863 834.584 Q 529.934 834.941 530.533 835.508 L 530.533 835.508 L 530.533 835.508 Q 531.131 836.075 531.131 837.041 L 531.131 837.041 L 531.131 837.041 Q 531.131 838.301 530.249 839.12 L 530.249 839.12 L 530.249 839.12 Q 529.367 839.939 527.75 839.939 L 527.75 839.939 Z  M 485.54 828.725 L 483.881 829.67 L 483.251 828.578 L 483.251 828.578 Q 483.398 828.494 484.238 828.032 L 484.238 828.032 L 484.931 827.654 L 483.272 826.646 L 483.839 825.638 L 483.839 825.638 Q 484.973 826.31 485.54 826.625 L 485.54 826.625 L 485.54 824.63 L 486.8 824.63 L 486.779 826.625 L 488.501 825.659 L 489.089 826.667 L 487.346 827.675 L 489.047 828.641 L 488.417 829.733 L 486.737 828.725 L 486.716 830.636 L 485.54 830.636 L 485.54 828.725 Z " fill="rgb(73,67,104)"/></g></svg>